<svg width="25" height="25" viewBox="0 0 25 25" fill="none" xmlns="http://www.w3.org/2000/svg">
<path d="M10.4947 20.3599C10.6074 21.3599 11.4711 22.1376 12.52 22.1376C13.5689 22.1376 14.4327 21.3599 14.5453 20.3599H10.4947ZM16.8161 20.3599C16.6983 22.5884 14.8199 24.3599 12.52 24.3599C10.2201 24.3599 8.34173 22.5884 8.22399 20.3599H2.55838C1.43262 20.3599 0.52002 19.4653 0.52002 18.3607V17.9147C0.52002 16.3035 1.687 14.9595 3.237 14.6495V9.47064C3.237 4.43761 7.39254 0.359863 12.52 0.359863C17.6475 0.359863 21.803 4.43857 21.803 9.47064V14.6492C23.3549 14.9587 24.52 16.302 24.52 17.9147V18.3607C24.52 19.4682 23.6075 20.3599 22.4817 20.3599H16.8161ZM22.2559 17.9147C22.2559 17.3004 21.7499 16.8043 21.1196 16.8043C20.2459 16.8043 19.5389 16.1052 19.5389 15.252V9.47064C19.5389 5.66585 16.3971 2.58209 12.52 2.58209C8.64289 2.58209 5.50115 5.66501 5.50115 9.47064V15.252C5.50115 16.1089 4.79046 16.8043 3.92042 16.8043C3.29258 16.8043 2.78417 17.3023 2.78417 17.9147V18.1376H22.2559V17.9147Z" fill="#2AD2BE"/>
</svg>
