<svg width="27" height="27" viewBox="0 0 27 27" fill="none" xmlns="http://www.w3.org/2000/svg">
<path d="M0.9 9.9C1.44 9.9 1.8 9.54 1.8 9V1.8H9C9.54 1.8 9.9 1.44 9.9 0.9C9.9 0.36 9.54 0 9 0H0.9C0.36 0 0 0.36 0 0.9V9C0 9.54 0.36 9.9 0.9 9.9Z" fill="#2AD2BE"/>
<path d="M26.1001 0H18.0001C17.4601 0 17.1001 0.36 17.1001 0.9C17.1001 1.44 17.4601 1.8 18.0001 1.8H25.2001V9C25.2001 9.54 25.5601 9.9 26.1001 9.9C26.6401 9.9 27.0001 9.54 27.0001 9V0.9C27.0001 0.36 26.6401 0 26.1001 0Z" fill="#2AD2BE"/>
<path d="M9 25.2H1.8V18C1.8 17.46 1.44 17.1 0.9 17.1C0.36 17.1 0 17.46 0 18V26.1C0 26.64 0.36 27 0.9 27H9C9.54 27 9.9 26.64 9.9 26.1C9.9 25.56 9.54 25.2 9 25.2Z" fill="#2AD2BE"/>
<path d="M26.1001 17.1C25.5601 17.1 25.2001 17.46 25.2001 18V25.2H18.0001C17.4601 25.2 17.1001 25.56 17.1001 26.1C17.1001 26.64 17.4601 27 18.0001 27H26.1001C26.6401 27 27.0001 26.64 27.0001 26.1V18C27.0001 17.46 26.6401 17.1 26.1001 17.1Z" fill="#2AD2BE"/>
<path d="M3.6001 4.49998V22.5C3.6001 23.04 3.9601 23.4 4.5001 23.4C5.0401 23.4 5.4001 23.04 5.4001 22.5V4.49998C5.4001 3.95998 5.0401 3.59998 4.5001 3.59998C3.9601 3.59998 3.6001 3.95998 3.6001 4.49998Z" fill="#2AD2BE"/>
<path d="M13.5001 3.59998C12.9601 3.59998 12.6001 3.95998 12.6001 4.49998V22.5C12.6001 23.04 12.9601 23.4 13.5001 23.4C14.0401 23.4 14.4001 23.04 14.4001 22.5V4.49998C14.4001 3.95998 14.0401 3.59998 13.5001 3.59998Z" fill="#2AD2BE"/>
<path d="M6.30005 4.49998V22.5C6.30005 23.04 6.66005 23.4 7.20005 23.4C7.74005 23.4 8.10005 23.04 8.10005 22.5V4.49998C8.10005 3.95998 7.74005 3.59998 7.20005 3.59998C6.66005 3.59998 6.30005 3.95998 6.30005 4.49998Z" fill="#2AD2BE"/>
<path d="M10.7999 3.59998C10.2599 3.59998 9.8999 3.95998 9.8999 4.49998V22.5C9.8999 23.04 10.2599 23.4 10.7999 23.4C11.3399 23.4 11.6999 23.04 11.6999 22.5V4.49998C11.6999 3.95998 11.3399 3.59998 10.7999 3.59998Z" fill="#2AD2BE"/>
<path d="M20.6999 22.5V4.49998C20.6999 3.95998 20.3399 3.59998 19.7999 3.59998C19.2599 3.59998 18.8999 3.95998 18.8999 4.49998V22.5C18.8999 23.04 19.2599 23.4 19.7999 23.4C20.3399 23.4 20.6999 23.04 20.6999 22.5Z" fill="#2AD2BE"/>
<path d="M23.4001 22.5V4.49998C23.4001 3.95998 23.0401 3.59998 22.5001 3.59998C21.9601 3.59998 21.6001 3.95998 21.6001 4.49998V22.5C21.6001 23.04 21.9601 23.4 22.5001 23.4C23.0401 23.4 23.4001 23.04 23.4001 22.5Z" fill="#2AD2BE"/>
<path d="M17.1 4.49998C17.1 3.95998 16.74 3.59998 16.2 3.59998C15.66 3.59998 15.3 3.95998 15.3 4.49998V22.5C15.3 23.04 15.66 23.4 16.2 23.4C16.74 23.4 17.1 23.04 17.1 22.5V4.49998Z" fill="#2AD2BE"/>
</svg>
